<svg width="24" height="24" viewBox="0 0 24 24" fill="none" xmlns="http://www.w3.org/2000/svg">
<path d="M21 3H19C18.4477 3 18 2.55228 18 2C18 1.44772 17.5523 1 17 1C16.4477 1 16 1.44772 16 2V6C16 6.55228 16.4477 7 17 7C17.5523 7 18 6.55228 18 6C18 5.44772 18.4477 5 19 5H19.5C20.3284 5 21 5.67157 21 6.5V18C21 19.1046 20.1046 20 19 20H5C3.89543 20 3 19.1046 3 18V6C3 5.44772 3.44772 5 4 5C4.55228 5 5 4.55228 5 4C5 3.44772 4.55228 3 4 3H3C1.896 3 1 3.895 1 5V20C1 21.104 1.896 22 3 22H21C22.104 22 23 21.104 23 20V5C23 3.895 22.104 3 21 3Z" fill="#919191"/>
<path d="M8 6C8 5.44772 8.44772 5 9 5H14C14.5523 5 15 4.55228 15 4C15 3.44772 14.5523 3 14 3H9C8.44772 3 8 2.55228 8 2C8 1.44772 7.55228 1 7 1C6.44772 1 6 1.44772 6 2V6C6 6.55228 6.44772 7 7 7C7.55228 7 8 6.55228 8 6Z" fill="#919191"/>
<path d="M5 11C5 12.1046 5.89543 13 7 13C8.10457 13 9 12.1046 9 11C9 9.89543 8.10457 9 7 9C5.89543 9 5 9.89543 5 11Z" fill="#919191"/>
<path d="M10 11C10 12.1046 10.8954 13 12 13C13.1046 13 14 12.1046 14 11C14 9.89543 13.1046 9 12 9C10.8954 9 10 9.89543 10 11Z" fill="#919191"/>
<path d="M15 11C15 12.1046 15.8954 13 17 13C18.1046 13 19 12.1046 19 11C19 9.89543 18.1046 9 17 9C15.8954 9 15 9.89543 15 11Z" fill="#919191"/>
<path d="M5 16C5 17.1046 5.89543 18 7 18C8.10457 18 9 17.1046 9 16C9 14.8954 8.10457 14 7 14C5.89543 14 5 14.8954 5 16Z" fill="#919191"/>
<path d="M10 16C10 17.1046 10.8954 18 12 18C13.1046 18 14 17.1046 14 16C14 14.8954 13.1046 14 12 14C10.8954 14 10 14.8954 10 16Z" fill="#919191"/>
</svg>
