<svg width="40" height="40" viewBox="0 0 40 40" fill="none" xmlns="http://www.w3.org/2000/svg">
<path fill-rule="evenodd" clip-rule="evenodd" d="M26.9213 17.8709C26.9213 17.8709 13.7078 2.27305 12.6741 1.11436C11.6404 -0.0443378 9.07861 0.000227373 9.07861 0.000227373L16.4494 16.4894V17.6481L26.9213 17.8709Z" fill="#1111B7"/>
<path fill-rule="evenodd" clip-rule="evenodd" d="M26.9213 22.5502C26.9213 22.5502 13.7078 38.148 12.6741 39.3067C11.6404 40.4654 9.07861 40.4209 9.07861 40.4209L16.4494 23.9317V22.7731L26.9213 22.5502Z" fill="#1111B7"/>
<path fill-rule="evenodd" clip-rule="evenodd" d="M7.59554 18.5839L2.02251 12.5231H0.17981L2.96633 19.4752L7.59554 18.5839Z" fill="#1111B7"/>
<path fill-rule="evenodd" clip-rule="evenodd" d="M7.59554 21.6144L2.02251 27.6752H0.17981L2.96633 20.7231L7.59554 21.6144Z" fill="#1111B7"/>
<path fill-rule="evenodd" clip-rule="evenodd" d="M2.20227 22.6394L2.7416 21.2133L7.0562 22.1937L6.3371 22.9513L2.20227 22.6394Z" fill="#0C0C96"/>
<path fill-rule="evenodd" clip-rule="evenodd" d="M0 20.2774C0 18.7176 10.6517 17.4698 11.8202 17.4698H32.8989C34.0674 17.4698 39.6404 18.7176 39.6404 20.2774C39.6404 21.8372 34.1124 23.085 32.8989 23.085H11.8652C10.6517 23.085 0 21.7926 0 20.2774Z" fill="#4141E5"/>
<path fill-rule="evenodd" clip-rule="evenodd" d="M0 20.2774C0 18.7176 10.6517 17.4698 11.8202 17.4698H32.8989C34.0674 17.4698 39.6404 18.7176 39.6404 20.2774C32.6742 18.7176 7.14607 18.9404 0 20.2774Z" fill="#8484F4"/>
<path fill-rule="evenodd" clip-rule="evenodd" d="M17.573 12.5231V12.0774C17.573 11.5426 18.0224 11.2307 18.7865 11.0524L20.3595 10.785H22.7415C23.2809 10.785 23.7303 11.2307 23.7303 11.7654V12.7904C23.7303 13.3252 23.2809 13.7709 22.7415 13.7709H20.4494L18.8764 13.4589C18.2921 13.2807 17.573 13.0578 17.573 12.5231Z" fill="#0A0A7A"/>
<path fill-rule="evenodd" clip-rule="evenodd" d="M13.9326 7.04154V6.68501C13.9326 6.23936 14.2922 5.97197 14.9214 5.83827L16.1798 5.61545H18.0674C18.5169 5.61545 18.8315 5.97197 18.8315 6.37306V7.2198C18.8315 7.66545 18.4719 7.9774 18.0674 7.9774H16.2248L14.9663 7.71001C14.4719 7.71001 13.9326 7.48719 13.9326 7.04154Z" fill="#0A0A7A"/>
<path fill-rule="evenodd" clip-rule="evenodd" d="M17.573 28.0763V28.522C17.573 29.0568 18.0224 29.3687 18.7865 29.547L20.3595 29.8144H22.7415C23.2809 29.8144 23.7303 29.3687 23.7303 28.8339V27.8089C23.7303 27.2741 23.2809 26.8285 22.7415 26.8285H20.4494L18.8764 27.1404C18.2921 27.2741 17.573 27.5415 17.573 28.0763Z" fill="#0A0A7A"/>
<path fill-rule="evenodd" clip-rule="evenodd" d="M13.9326 33.5133V33.8698C13.9326 34.3155 14.2922 34.5828 14.9214 34.7165L16.1798 34.9394H18.0674C18.5169 34.9394 18.8315 34.5828 18.8315 34.1818V33.335C18.8315 32.8894 18.4719 32.5774 18.0674 32.5774H16.2248L14.9663 32.8448C14.4719 32.8894 13.9326 33.1122 13.9326 33.5133Z" fill="#0A0A7A"/>
<path fill-rule="evenodd" clip-rule="evenodd" d="M16.4944 23.8872V23.085H26.4719L25.7528 23.8872H16.4944Z" fill="#0C0C96"/>
</svg>
